# xmcd CD database file
#
# Track frame offsets:
#	150
#	9975
#	29699
#	50892
#	66634
#	83494
#	115741
#	121630
#	162927
#	176622
#	193967
#
# Disc length: 2765 seconds
#
# Revision: 0
# Processed by: cddbd v1.5.2PL0 Copyright (c) Steve Scherf et al.
# Submitted via: CDex 1.51
#
DISCID=930acb0b
DTITLE=Lina Nyberg - The show
DYEAR=2009
DGENRE=Jazz
TTITLE0=Overtyr: Cavaletti
TTITLE1=Where did they go
TTITLE2=Say it is´n so
TTITLE3=Yokohama
TTITLE4=One little step
TTITLE5=Interlude: Open rein
TTITLE6=I´m a fish
TTITLE7=Medly: Jamaica farwell
TTITLE8=Sailors song
TTITLE9=Interlude: Halvhalt
TTITLE10=I´ve grown accustomed to her face
EXTD=YEAR: 2009
EXTT0=
EXTT1=
EXTT2=
EXTT3=
EXTT4=
EXTT5=
EXTT6=
EXTT7=
EXTT8=
EXTT9=
EXTT10=
PLAYORDER=
